<svg id='Coins_24' width='24' height='24' viewBox='0 0 24 24' xmlns='http://www.w3.org/2000/svg' xmlns:xlink='http://www.w3.org/1999/xlink'><rect width='24' height='24' stroke='none' fill='#000000' opacity='0'/>


<g transform="matrix(0.42 0 0 0.42 12 12)" >
<g style="" >
<g transform="matrix(1 0 0 1 -3.5 11.5)" >
<circle style="stroke: none; stroke-width: 1; stroke-dasharray: none; stroke-linecap: butt; stroke-dashoffset: 0; stroke-linejoin: miter; stroke-miterlimit: 4; fill: rgb(201,212,224); fill-rule: nonzero; opacity: 1;" cx="0" cy="0" r="9.5" />
</g>
<g transform="matrix(1 0 0 1 -3.5 11.5)" >
<circle style="stroke: none; stroke-width: 1; stroke-dasharray: none; stroke-linecap: butt; stroke-dashoffset: 0; stroke-linejoin: miter; stroke-miterlimit: 4; fill: rgb(178,187,199); fill-rule: nonzero; opacity: 1;" cx="0" cy="0" r="7.5" />
</g>
<g transform="matrix(1 0 0 1 -3.5 11.8)" >
<path style="stroke: none; stroke-width: 1; stroke-dasharray: none; stroke-linecap: butt; stroke-dashoffset: 0; stroke-linejoin: miter; stroke-miterlimit: 4; fill: rgb(201,212,224); fill-rule: nonzero; opacity: 1;" transform=" translate(-20.5, -35.8)" d="M 18.116 39.329 L 18.116 37.9 C 18.634999999999998 38.217999999999996 19.187 38.376 19.773 38.376 C 20.214 38.376 20.559 38.271 20.808 38.061 C 21.057 37.851 21.181 37.566 21.181 37.206 C 21.181 36.454 20.650000000000002 36.079 19.588 36.079 C 19.242 36.079 18.824 36.111 18.334 36.174 L 18.334 31.933999999999997 L 22.536 31.933999999999997 L 22.536 33.3 L 19.763 33.3 L 19.763 34.818999999999996 C 19.985000000000003 34.797999999999995 20.195 34.787 20.393 34.787 C 21.173000000000002 34.787 21.783 34.992 22.224 35.400999999999996 C 22.665 35.81099999999999 22.886 36.361 22.886 37.053 C 22.886 37.818 22.622999999999998 38.443999999999996 22.096999999999998 38.928999999999995 C 21.570999999999998 39.41499999999999 20.858999999999998 39.657 19.958999999999996 39.657 C 19.227 39.657 18.613 39.547 18.116 39.329 z" stroke-linecap="round" />
</g>
<g transform="matrix(1 0 0 1 -3.48 9.9)" >
<path style="stroke: none; stroke-width: 1; stroke-dasharray: none; stroke-linecap: butt; stroke-dashoffset: 0; stroke-linejoin: miter; stroke-miterlimit: 4; fill: rgb(0,0,0); fill-rule: nonzero; opacity: 0.05;" transform=" translate(-20.52, -33.9)" d="M 11.046 34.591 C 13.228 35.846000000000004 15.689 36.672000000000004 18.323999999999998 36.915 C 20.724999999999998 39.483 23.961999999999996 41.245 27.598999999999997 41.798 C 29.088 40.121 30 37.919 30 35.5 C 30 30.253 25.747 26 20.5 26 C 15.56 26 11.504 29.771 11.046 34.591 z" stroke-linecap="round" />
</g>
<g transform="matrix(1 0 0 1 -3.37 9.43)" >
<path style="stroke: none; stroke-width: 1; stroke-dasharray: none; stroke-linecap: butt; stroke-dashoffset: 0; stroke-linejoin: miter; stroke-miterlimit: 4; fill: rgb(0,0,0); fill-rule: nonzero; opacity: 0.07;" transform=" translate(-20.63, -33.43)" d="M 11.266 33.552 C 13.492 34.894 16.045 35.751 18.786 35.939 C 21.16 38.629 24.494 40.44 28.248 40.868 C 29.343 39.367 30 37.512 30 35.5 C 30 30.253 25.747 26 20.5 26 C 15.929 26 12.122 29.251 11.266 33.552 z" stroke-linecap="round" />
</g>
<g transform="matrix(1 0 0 1 6 2)" >
<circle style="stroke: none; stroke-width: 1; stroke-dasharray: none; stroke-linecap: butt; stroke-dashoffset: 0; stroke-linejoin: miter; stroke-miterlimit: 4; fill: rgb(255,143,107); fill-rule: nonzero; opacity: 1;" cx="0" cy="0" r="14" />
</g>
<g transform="matrix(1 0 0 1 6 2)" >
<circle style="stroke: none; stroke-width: 1; stroke-dasharray: none; stroke-linecap: butt; stroke-dashoffset: 0; stroke-linejoin: miter; stroke-miterlimit: 4; fill: rgb(237,108,71); fill-rule: nonzero; opacity: 1;" cx="0" cy="0" r="12" />
</g>
<g transform="matrix(1 0 0 1 2.07 2.57)" >
<path style="stroke: none; stroke-width: 1; stroke-dasharray: none; stroke-linecap: butt; stroke-dashoffset: 0; stroke-linejoin: miter; stroke-miterlimit: 4; fill: rgb(245,190,0); fill-rule: nonzero; opacity: 1;" transform=" translate(-26.07, -26.57)" d="M 29.039 31.308 L 23.149 31.308 L 23.149 29.685 L 25.078 29.685 L 25.078 23.886 L 23.096999999999998 24.314999999999998 L 23.096999999999998 22.653 L 27.122999999999998 21.840999999999998 L 27.122999999999998 29.685 L 29.038999999999998 29.685 L 29.038999999999998 31.308 z" stroke-linecap="round" />
</g>
<g transform="matrix(1 0 0 1 9.53 2.65)" >
<path style="stroke: none; stroke-width: 1; stroke-dasharray: none; stroke-linecap: butt; stroke-dashoffset: 0; stroke-linejoin: miter; stroke-miterlimit: 4; fill: rgb(255,143,107); fill-rule: nonzero; opacity: 1;" transform=" translate(-33.53, -26.65)" d="M 33.474 31.47 C 31.256999999999998 31.47 30.148999999999997 29.913999999999998 30.148999999999997 26.801 C 30.148999999999997 25.186 30.448999999999998 23.956 31.048 23.108999999999998 C 31.648 22.262999999999998 32.516999999999996 21.839 33.655 21.839 C 35.82 21.839 36.902 23.421 36.902 26.586 C 36.902 28.162 36.607 29.369999999999997 36.016 30.209999999999997 C 35.426 31.05 34.578 31.47 33.474 31.47 z M 33.565 23.405 C 32.678 23.405 32.233999999999995 24.52 32.233999999999995 26.749000000000002 C 32.233999999999995 28.849000000000004 32.669 29.898000000000003 33.538999999999994 29.898000000000003 C 34.38799999999999 29.898000000000003 34.812 28.816000000000003 34.812 26.651000000000003 C 34.812 24.486000000000004 34.396 23.405 33.565 23.405 z" stroke-linecap="round" />
</g>
<g transform="matrix(1 0 0 1 3 0.47)" >
<radialGradient id="SVGID_gFcLP_8vJw7uqN0sJV2bNa_31" gradientUnits="userSpaceOnUse" gradientTransform="matrix(1 0 0 1 0 0)" cx="19.893" cy="18.826" r="18.001" fx="19.893" fy="18.826">
<stop offset="0%" style="stop-color:rgb(0,0,0);stop-opacity: 1"/>
<stop offset="100%" style="stop-color:rgb(0,0,0);stop-opacity: 0"/>
</radialGradient>
<path style="stroke: none; stroke-width: 1; stroke-dasharray: none; stroke-linecap: butt; stroke-dashoffset: 0; stroke-linejoin: miter; stroke-miterlimit: 4; fill: url(#SVGID_gFcLP_8vJw7uqN0sJV2bNa_31); fill-rule: nonzero; opacity: 1;" transform=" translate(-27, -24.47)" d="M 16 26 C 16 30.429000000000002 18.062 34.37 21.272 36.936 C 30.617 36.281 38 28.512 38 19 C 38 17.288 37.746 15.639 37.299 14.07 C 35.172 12.766 32.678 12 30 12 C 22.268 12 16 18.268 16 26 z" stroke-linecap="round" />
</g>
<g transform="matrix(1 0 0 1 -4 -5)" >
<linearGradient id="SVGID_gFcLP_8vJw7uqN0sJV2bNb_32" gradientUnits="userSpaceOnUse" gradientTransform="matrix(1 0 0 1 -20 -19)" x1="9.018" y1="8.018" x2="31.29" y2="30.29">
<stop offset="0%" style="stop-color:rgb(254,222,0);stop-opacity: 1"/>
<stop offset="100%" style="stop-color:rgb(255,208,0);stop-opacity: 1"/>
</linearGradient>
<circle style="stroke: none; stroke-width: 1; stroke-dasharray: none; stroke-linecap: butt; stroke-dashoffset: 0; stroke-linejoin: miter; stroke-miterlimit: 4; fill: url(#SVGID_gFcLP_8vJw7uqN0sJV2bNb_32); fill-rule: nonzero; opacity: 1;" cx="0" cy="0" r="16" />
</g>
<g transform="matrix(1 0 0 1 -4 -5)" >
<circle style="stroke: none; stroke-width: 1; stroke-dasharray: none; stroke-linecap: butt; stroke-dashoffset: 0; stroke-linejoin: miter; stroke-miterlimit: 4; fill: rgb(245,190,0); fill-rule: nonzero; opacity: 1;" cx="0" cy="0" r="13" />
</g>
<g transform="matrix(1 0 0 1 -3.59 -5)" >
<path style="stroke: none; stroke-width: 1; stroke-dasharray: none; stroke-linecap: butt; stroke-dashoffset: 0; stroke-linejoin: miter; stroke-miterlimit: 4; fill: rgb(254,225,25); fill-rule: nonzero; opacity: 1;" transform=" translate(-20.41, -19)" d="M 16.427 24.896 L 16.427 22.511000000000003 C 17.293 23.041000000000004 18.215 23.306000000000004 19.192 23.306000000000004 C 19.928 23.306000000000004 20.504 23.131000000000004 20.919 22.781000000000006 C 21.334 22.430000000000007 21.542 21.955000000000005 21.542 21.354000000000006 C 21.542 20.099000000000007 20.656000000000002 19.472000000000005 18.883000000000003 19.472000000000005 C 18.305000000000003 19.472000000000005 17.608000000000004 19.525000000000006 16.789 19.631000000000004 L 16.789 12.555000000000003 L 23.803 12.555000000000003 L 23.803 14.834000000000003 L 19.174 14.834000000000003 L 19.174 17.369000000000003 C 19.544999999999998 17.334000000000003 19.895 17.316000000000003 20.224999999999998 17.316000000000003 C 21.525999999999996 17.316000000000003 22.544999999999998 17.658 23.281 18.340000000000003 C 24.017 19.024000000000004 24.384999999999998 19.943000000000005 24.384999999999998 21.097000000000005 C 24.384999999999998 22.374000000000006 23.945999999999998 23.418000000000006 23.069 24.228000000000005 C 22.192 25.039000000000005 21.002 25.443000000000005 19.5 25.443000000000005 C 18.282 25.444 17.258 25.262 16.427 24.896 z" stroke-linecap="round" />
</g>
</g>
</g>
</svg>